<svg xmlns="http://www.w3.org/2000/svg" fill="none" viewBox="0 0 28 18"><path fill="#fff" d="M27.4938 8.15354C27.4935 8.15312 27.4933 8.15263 27.4929 8.15221L21.9309 0.869266C21.5142 0.323676 20.8403 0.325706 20.4255 0.874027C20.0108 1.42228 20.0124 2.30905 20.4291 2.85471L24.1634 7.74436H1.6206C1.03271 7.74436 0.556152 8.3714 0.556152 9.14493C0.556152 9.91846 1.03271 10.5455 1.6206 10.5455H24.1633L20.4291 15.4351C20.0125 15.9808 20.0109 16.8676 20.4256 17.4158C20.8403 17.9642 21.5144 17.9661 21.931 17.4206L27.4929 10.1376C27.4933 10.1372 27.4935 10.1367 27.4939 10.1363C27.9108 9.58884 27.9095 8.6992 27.4938 8.15354Z"/></svg>