<svg xmlns="http://www.w3.org/2000/svg" width="8" height="12" fill="none" viewBox="0 0 8 12"><path fill="#1D7EFF" d="M8 3.99996C8.0006 3.23003 7.77899 2.4763 7.36177 1.82922C6.94455 1.18215 6.34944 0.66923 5.64789 0.352043C4.94634 0.034856 4.16815 -0.073123 3.40675 0.0410671C2.64534 0.155257 1.93306 0.486764 1.35542 0.995794C0.777781 1.50482 0.35932 2.16975 0.15027 2.91075C-0.0587804 3.65174 -0.0495357 4.43733 0.176894 5.1732C0.403324 5.90908 0.837316 6.56397 1.42678 7.05927C2.01624 7.55456 2.73612 7.86921 3.5 7.96546V9.49996H2V10.5H3.5V12H4.5V10.5H6V9.49996H4.5V7.96546C5.46575 7.84292 6.35378 7.37274 6.99797 6.64287C7.64216 5.913 7.99838 4.97345 8 3.99996ZM0.999999 3.99996C0.999999 3.40661 1.17595 2.82659 1.50559 2.33324C1.83523 1.8399 2.30377 1.45538 2.85195 1.22832C3.40013 1.00125 4.00333 0.941844 4.58527 1.0576C5.16721 1.17336 5.70176 1.45908 6.12132 1.87864C6.54088 2.29819 6.8266 2.83274 6.94236 3.41468C7.05811 3.99663 6.9987 4.59983 6.77164 5.14801C6.54458 5.69618 6.16006 6.16472 5.66671 6.49436C5.17336 6.82401 4.59334 6.99996 4 6.99996C3.20459 6.99916 2.44199 6.68284 1.87956 6.1204C1.31712 5.55796 1.00079 4.79536 0.999999 3.99996Z"/></svg>