<svg xmlns="http://www.w3.org/2000/svg" width="18" height="18" fill="none" viewBox="0 0 18 18"><g clip-path="url(#clip0_472_51)"><path fill="#fff" d="M9.43932 0.682129C7.76675 0.682129 6.13174 1.1781 4.74106 2.10733C3.35037 3.03656 2.26646 4.35731 1.62639 5.90256C0.98633 7.44781 0.81886 9.14816 1.14516 10.7886C1.47146 12.429 2.27688 13.9358 3.45956 15.1185C4.64225 16.3012 6.14908 17.1066 7.78951 17.4329C9.42994 17.7592 11.1303 17.5918 12.6755 16.9517C14.2208 16.3116 15.5415 15.2277 16.4708 13.837C17.4 12.4464 17.896 10.8113 17.896 9.13878C17.8935 6.89668 17.0018 4.74711 15.4164 3.1617C13.831 1.5763 11.6814 0.684554 9.43932 0.682129V0.682129ZM11.7099 5.61517H7.16871C7.76685 4.43425 8.53153 3.34538 9.43932 2.38192C10.3474 3.34511 11.1122 4.43403 11.7099 5.61517ZM12.2737 7.02462C12.4903 7.70867 12.6034 8.42127 12.6092 9.13878C12.6034 9.85628 12.4903 10.5689 12.2737 11.2529H6.60352C6.38693 10.5689 6.27386 9.85628 6.26808 9.13878C6.27386 8.42127 6.38693 7.70867 6.60352 7.02462H12.2737ZM7.60704 2.34245C6.79497 3.33596 6.12472 4.43737 5.6155 5.61517H3.3456C4.27996 4.0059 5.81117 2.82994 7.60704 2.34245ZM2.39211 9.13878C2.39205 8.42162 2.5016 7.70867 2.71699 7.02462H5.14052C4.95783 7.71464 4.86311 8.42499 4.85863 9.13878C4.86311 9.85256 4.95783 10.5629 5.14052 11.2529H2.71699C2.5016 10.5689 2.39205 9.85594 2.39211 9.13878ZM3.3456 12.6624H5.6155C6.12472 13.8402 6.79497 14.9416 7.60704 15.9351C5.81117 15.4476 4.27996 14.2717 3.3456 12.6624ZM7.16871 12.6624H11.7099C11.1118 13.8433 10.3471 14.9322 9.43932 15.8956C8.5312 14.9324 7.76648 13.8435 7.16871 12.6624ZM11.2751 15.9351C12.086 14.9414 12.755 13.84 13.2631 12.6624H15.533C14.5995 14.2709 13.0697 15.4468 11.2751 15.9351ZM16.4865 9.13878C16.4866 9.85594 16.377 10.5689 16.1616 11.2529H13.7381C13.9208 10.5629 14.0155 9.85256 14.02 9.13878C14.0155 8.42499 13.9208 7.71464 13.7381 7.02462H16.1602C16.3761 7.70859 16.4861 8.42155 16.4865 9.13878ZM13.2631 5.61517C12.755 4.43758 12.086 3.33617 11.2751 2.34245C13.0697 2.83077 14.5995 4.00663 15.533 5.61517H13.2631Z"/></g><defs><clipPath id="clip0_472_51"><rect width="16.913" height="16.913" x=".983" y=".682" fill="#fff" rx="8.457"/></clipPath></defs></svg>