<svg xmlns="http://www.w3.org/2000/svg" width="22" height="22" fill="none" viewBox="0 0 22 22"><path fill="#1479FF" d="M17.4421 13.5304C16.7648 13.5309 16.0977 13.6965 15.4985 14.0127C14.8993 14.329 14.386 14.7864 14.0028 15.3456L8.17149 12.7097C8.58567 11.7085 8.58728 10.5839 8.17597 9.58143L13.9992 6.93208C14.5671 7.75429 15.4106 8.34551 16.3766 8.5985C17.3426 8.8515 18.3672 8.7495 19.2645 8.31102C20.1618 7.87253 20.8724 7.12661 21.2675 6.20854C21.6625 5.29048 21.7157 4.26108 21.4175 3.30708C21.1193 2.35308 20.4895 1.53767 19.6422 1.00875C18.7949 0.479825 17.7863 0.272431 16.7994 0.424185C15.8124 0.575938 14.9125 1.07679 14.2628 1.83588C13.6132 2.59498 13.2568 3.56204 13.2583 4.56165C13.2621 4.79824 13.2861 5.03408 13.33 5.26659L7.13942 8.08276C6.54486 7.5251 5.80052 7.15346 4.99787 7.01348C4.19521 6.8735 3.36919 6.97129 2.62128 7.29482C1.87338 7.61836 1.23616 8.15356 0.787925 8.83466C0.339686 9.51577 0.0999447 10.3131 0.0981546 11.1288C0.0963645 11.9444 0.332603 12.7428 0.777849 13.4259C1.22309 14.1089 1.85795 14.6469 2.60443 14.9738C3.35091 15.3006 4.17649 15.402 4.97976 15.2655C5.78302 15.1291 6.52898 14.7607 7.12598 14.2057L13.3327 17.0111C13.2896 17.2434 13.2659 17.4789 13.2619 17.7152C13.2618 18.5431 13.5068 19.3525 13.9662 20.0409C14.4256 20.7294 15.0785 21.266 15.8426 21.583C16.6066 21.8999 17.4474 21.9828 18.2585 21.8214C19.0697 21.6599 19.8147 21.2612 20.3995 20.6758C20.9843 20.0903 21.3826 19.3444 21.5439 18.5324C21.7052 17.7204 21.6223 16.8787 21.3057 16.1138C20.9891 15.349 20.4531 14.6953 19.7654 14.2354C19.0777 13.7755 18.2692 13.5302 17.4421 13.5304ZM17.4421 2.1697C17.9148 2.16952 18.3768 2.30965 18.7698 2.57238C19.1629 2.8351 19.4693 3.20861 19.6502 3.64567C19.8312 4.08272 19.8787 4.56369 19.7866 5.02775C19.6945 5.4918 19.467 5.91809 19.1329 6.2527C18.7988 6.58731 18.373 6.81521 17.9095 6.90758C17.446 6.99994 16.9655 6.95263 16.5289 6.77161C16.0922 6.5906 15.719 6.28401 15.4564 5.89064C15.1939 5.49727 15.0537 5.03477 15.0537 4.56165C15.0542 3.92756 15.3059 3.31957 15.7537 2.87112C16.2015 2.42267 16.8088 2.17041 17.4421 2.1697ZM4.30304 13.5304C3.83043 13.5305 3.36839 13.3904 2.97535 13.1277C2.58231 12.8649 2.27592 12.4914 2.09494 12.0544C1.91396 11.6173 1.86652 11.1364 1.95861 10.6723C2.0507 10.2083 2.27819 9.78196 2.61231 9.44735C2.94643 9.11274 3.37217 8.88484 3.83568 8.79247C4.29919 8.70011 4.77965 8.74742 5.21629 8.92844C5.65294 9.10945 6.02616 9.41603 6.28874 9.80941C6.55132 10.2028 6.69148 10.6653 6.69148 11.1384C6.69077 11.7724 6.43893 12.3803 5.99119 12.8287C5.54345 13.2771 4.93636 13.5294 4.30304 13.5304ZM17.4421 20.1071C16.9696 20.1071 16.5076 19.9668 16.1147 19.704C15.7218 19.4412 15.4155 19.0676 15.2347 18.6305C15.0538 18.1934 15.0065 17.7125 15.0987 17.2485C15.1909 16.7845 15.4185 16.3583 15.7526 16.0238C16.0868 15.6893 16.5125 15.4615 16.976 15.3692C17.4395 15.2769 17.9199 15.3242 18.3565 15.5053C18.7931 15.6863 19.1663 15.9929 19.4288 16.3863C19.6913 16.7796 19.8315 17.2421 19.8315 17.7152C19.831 18.3494 19.5791 18.9575 19.1311 19.406C18.6832 19.8545 18.0757 20.1066 17.4421 20.1071Z"/></svg>